<?xml version="1.0"?>
<svg xmlns="http://www.w3.org/2000/svg" xmlns:xlink="http://www.w3.org/1999/xlink" version="1.1" viewBox="0 0 192 192" width="240px" height="240px"><g fill="none" fill-rule="nonzero" stroke="none" stroke-width="1" stroke-linecap="butt" stroke-linejoin="miter" stroke-miterlimit="10" stroke-dasharray="" stroke-dashoffset="0" font-family="none" font-weight="none" font-size="none" text-anchor="none" style="mix-blend-mode: normal"><path d="M0,192v-192h192v192z" fill="none"/><g fill="#ffffff"><g id="surface1"><path d="M151.37813,24.00937c-3.69375,0 -7.3875,1.40625 -10.19063,4.20938l-17.38125,17.38125l-87.46875,87.45937l-14.11875,36.7125l36.72187,-14.10937l0.35625,-0.36563l104.48438,-104.48437c5.60625,-5.60625 5.60625,-14.76563 0,-20.3625l-2.23125,-2.23125c-2.79375,-2.80313 -6.4875,-4.20938 -10.17187,-4.20938zM151.37813,28.78125c2.44687,0 4.89375,0.94687 6.7875,2.83125l2.22187,2.22187c3.76875,3.77813 3.76875,9.81563 0,13.58438l-1.9875,1.9875l-15.80625,-15.80625l1.9875,-1.9875c1.88437,-1.88437 4.34062,-2.83125 6.79687,-2.83125zM139.2,36.99375l15.80625,15.80625l-8.60625,8.60625l-15.80625,-15.80625zM127.2,48.99375l15.80625,15.80625l-83.83125,83.83125c-0.42187,-1.32188 -1.07813,-2.72813 -2.27813,-3.92813c-1.7625,-1.7625 -3.98437,-2.40937 -5.72812,-2.75625c-0.55313,-0.1125 -0.55313,-0.05625 -1.00313,-0.1125c-0.05625,-0.45 0,-0.45 -0.1125,-1.00312c-0.34687,-1.74375 -0.99375,-3.96563 -2.75625,-5.72813c-1.2,-1.2 -2.60625,-1.85625 -3.92812,-2.27813zM127.2,55.2c-1.32187,0 -2.4,1.07813 -2.4,2.4c0,1.32187 1.07813,2.4 2.4,2.4c1.32187,0 2.4,-1.07813 2.4,-2.4c0,-1.32187 -1.07813,-2.4 -2.4,-2.4zM120,62.4c-1.32187,0 -2.4,1.07813 -2.4,2.4c0,1.32187 1.07813,2.4 2.4,2.4c1.32187,0 2.4,-1.07813 2.4,-2.4c0,-1.32187 -1.07813,-2.4 -2.4,-2.4zM112.8,69.6c-1.32187,0 -2.4,1.07813 -2.4,2.4c0,1.32187 1.07813,2.4 2.4,2.4c1.32187,0 2.4,-1.07813 2.4,-2.4c0,-1.32187 -1.07813,-2.4 -2.4,-2.4zM105.6,76.8c-1.32187,0 -2.4,1.07813 -2.4,2.4c0,1.32187 1.07813,2.4 2.4,2.4c1.32187,0 2.4,-1.07813 2.4,-2.4c0,-1.32187 -1.07813,-2.4 -2.4,-2.4zM98.4,84c-1.32187,0 -2.4,1.07813 -2.4,2.4c0,1.32187 1.07813,2.4 2.4,2.4c1.32187,0 2.4,-1.07813 2.4,-2.4c0,-1.32187 -1.07813,-2.4 -2.4,-2.4zM91.2,91.2c-1.32187,0 -2.4,1.07813 -2.4,2.4c0,1.32187 1.07813,2.4 2.4,2.4c1.32187,0 2.4,-1.07813 2.4,-2.4c0,-1.32187 -1.07813,-2.4 -2.4,-2.4zM84,98.4c-1.32187,0 -2.4,1.07813 -2.4,2.4c0,1.32187 1.07813,2.4 2.4,2.4c1.32187,0 2.4,-1.07813 2.4,-2.4c0,-1.32187 -1.07813,-2.4 -2.4,-2.4zM76.8,105.6c-1.32187,0 -2.4,1.07813 -2.4,2.4c0,1.32187 1.07813,2.4 2.4,2.4c1.32187,0 2.4,-1.07813 2.4,-2.4c0,-1.32187 -1.07813,-2.4 -2.4,-2.4zM69.6,112.8c-1.32187,0 -2.4,1.07813 -2.4,2.4c0,1.32187 1.07813,2.4 2.4,2.4c1.32187,0 2.4,-1.07813 2.4,-2.4c0,-1.32187 -1.07813,-2.4 -2.4,-2.4zM62.4,120c-1.32187,0 -2.4,1.07813 -2.4,2.4c0,1.32187 1.07813,2.4 2.4,2.4c1.32187,0 2.4,-1.07813 2.4,-2.4c0,-1.32187 -1.07813,-2.4 -2.4,-2.4zM55.2,127.2c-1.32187,0 -2.4,1.07813 -2.4,2.4c0,1.32187 1.07813,2.4 2.4,2.4c1.32187,0 2.4,-1.07813 2.4,-2.4c0,-1.32187 -1.07813,-2.4 -2.4,-2.4zM39.98437,136.95937c0.225,0.0375 0.39375,0.04688 0.64688,0.09375c1.25625,0.25313 2.63437,0.80625 3.27187,1.44375c0.6375,0.6375 1.19063,2.01563 1.44375,3.27188c0.25313,1.25625 0.25313,2.23125 0.25313,2.23125v2.4h2.4c0,0 0.975,0 2.23125,0.25313c1.25625,0.25313 2.63437,0.80625 3.27187,1.44375c0.6375,0.6375 1.19063,2.01563 1.44375,3.27188c0.04688,0.25312 0.05625,0.42187 0.09375,0.64687l-16.63125,6.39375l-4.81875,-4.81875z"/></g></g></g></svg>
