<?xml version="1.0"?>
<svg xmlns="http://www.w3.org/2000/svg" xmlns:xlink="http://www.w3.org/1999/xlink" version="1.1" viewBox="0 0 192 192" width="64px" height="64px"><g fill="none" fill-rule="nonzero" stroke="none" stroke-width="1" stroke-linecap="butt" stroke-linejoin="miter" stroke-miterlimit="10" stroke-dasharray="" stroke-dashoffset="0" font-family="none" font-weight="none" font-size="none" text-anchor="none" style="mix-blend-mode: normal"><path d="M0,192v-192h192v192z" fill="none"/><g fill="#ffffff"><g id="surface1"><path d="M90,24c-3.14062,0 -6.35156,1.10156 -8.625,3.375c-2.27344,2.27344 -3.375,5.48438 -3.375,8.625v6h-36v12h6v96c0,9.86719 8.13281,18 18,18h72c9.86719,0 18,-8.13281 18,-18v-96h6v-12h-36v-6c0,-3.14062 -1.10156,-6.35156 -3.375,-8.625c-2.27344,-2.27344 -5.48437,-3.375 -8.625,-3.375zM90,36h24v6h-24zM60,54h84v96c0,3.32813 -2.67187,6 -6,6h-72c-3.32812,0 -6,-2.67187 -6,-6zM72,72v66h12v-66zM96,72v66h12v-66zM120,72v66h12v-66z"/></g></g></g></svg>
